<?xml version="1.0" standalone="no"?><svg xmlns="http://www.w3.org/2000/svg" viewBox="0 0 1440 320"><path fill="#0099ff" fill-opacity="1" d="M0,256L40,240C80,224,160,192,240,154.7C320,117,400,75,480,85.3C560,96,640,160,720,170.7C800,181,880,139,960,149.3C1040,160,1120,224,1200,208C1280,192,1360,96,1400,48L1440,0L1440,320L1400,320C1360,320,1280,320,1200,320C1120,320,1040,320,960,320C880,320,800,320,720,320C640,320,560,320,480,320C400,320,320,320,240,320C160,320,80,320,40,320L0,320Z"></path></svg>